<?xml version="1.0" standalone="no"?>
<!DOCTYPE svg PUBLIC "-//W3C//DTD SVG 20010904//EN"
 "http://www.w3.org/TR/2001/REC-SVG-20010904/DTD/svg10.dtd">
<svg version="1.0" xmlns="http://www.w3.org/2000/svg"
 width="122.000000pt" height="122.000000pt" viewBox="0 0 122.000000 122.000000"
 preserveAspectRatio="xMidYMid meet">
<metadata>
Created by potrace 1.11, written by Peter Selinger 2001-2013
</metadata>
<g transform="translate(0.000000,122.000000) scale(0.100000,-0.100000)"
fill="#000000" stroke="none">
<path d="M760 1205 c-46 -21 -68 -42 -91 -87 -23 -45 -24 -99 -4 -138 9 -17
14 -30 13 -30 -27 -1 -180 -11 -198 -13 -22 -2 -25 1 -22 30 4 42 -10 48 -63
24 -47 -21 -60 -49 -26 -58 36 -9 31 -31 -13 -57 -61 -36 -144 -130 -177 -201
-39 -82 -53 -182 -39 -271 38 -241 263 -422 500 -401 276 24 476 277 432 543
-15 92 -69 197 -132 261 -50 49 -51 51 -29 58 37 11 87 53 105 87 11 22 15 49
12 89 -5 65 -38 118 -96 152 -44 26 -128 31 -172 12z m115 -26 c78 -21 134
-102 121 -174 -12 -61 -75 -115 -135 -115 -19 0 -19 2 -6 33 11 25 19 32 38
30 21 -1 28 7 46 49 12 28 20 52 19 54 -5 4 -176 74 -182 74 -3 0 -12 -15 -20
-33 -27 -65 -27 -73 -7 -83 18 -8 19 -12 6 -41 -18 -42 -27 -41 -50 0 -13 25
-17 47 -13 86 7 74 47 112 138 130 3 0 23 -4 45 -10z m-94 -327 c36 -17 86
-53 115 -82 93 -92 130 -193 122 -330 -8 -145 -97 -274 -235 -342 -64 -31 -74
-33 -173 -33 -133 0 -194 22 -280 101 -69 65 -104 121 -125 200 -40 154 4 306
120 412 92 84 176 114 306 108 70 -3 97 -9 150 -34z"/>
<path d="M455 820 c-9 -14 13 -50 30 -50 18 0 18 1 5 34 -10 27 -24 33 -35 16z"/>
<path d="M730 811 c-14 -27 -13 -41 3 -41 15 0 39 44 30 54 -11 11 -22 6 -33
-13z"/>
<path d="M510 731 c-68 -24 -140 -98 -164 -167 -60 -177 73 -364 259 -364 102
0 192 54 241 142 25 46 29 63 29 133 0 62 -5 89 -22 121 -67 126 -210 182
-343 135z"/>
<path d="M257 623 c-13 -12 -7 -21 18 -27 36 -9 53 3 30 21 -21 14 -38 17 -48
6z"/>
<path d="M915 617 c-10 -8 -15 -19 -11 -25 9 -15 56 6 56 25 0 17 -21 17 -45
0z"/>
<path d="M273 358 c-25 -12 -29 -23 -13 -33 18 -11 50 6 50 26 0 21 -5 22 -37
7z"/>
<path d="M900 348 c0 -8 11 -20 25 -26 21 -10 27 -9 32 3 7 19 5 22 -30 30
-20 5 -27 3 -27 -7z"/>
<path d="M456 164 c-10 -26 -7 -44 7 -44 15 0 39 44 30 54 -12 11 -31 6 -37
-10z"/>
<path d="M720 166 c0 -25 12 -46 26 -46 16 0 16 5 8 38 -7 24 -34 31 -34 8z"/>
</g>
</svg>
